<?xml version="1.0" encoding="UTF-8"?>
<!DOCTYPE svg PUBLIC "-//W3C//DTD SVG 1.1//EN" "http://www.w3.org/Graphics/SVG/1.1/DTD/svg11.dtd">
<svg width="103mm" height="76mm" viewBox="0 0 10300 7600" version="1.1" xmlns="http://www.w3.org/2000/svg" xmlns:xlink="http://www.w3.org/1999/xlink" stroke-width="28.222" stroke-linejoin="round" xml:space="preserve">
 <path fill="rgb(114,159,207)" stroke="none" d="M -13,-13 L 10332,-13 10332,7607 -13,7607 -13,-13 Z"/>
 <path fill="none" stroke="rgb(52,101,164)" stroke-linejoin="round" d="M -13,-13 L 10332,-13 10332,7607 -13,7607 -13,-13 Z"/>
 <path fill="rgb(255,255,255)" stroke="none" d="M 5160,7594 L 0,7594 0,0 10319,0 10319,7594 5160,7594 Z"/>
 <path fill="none" stroke="rgb(217,217,217)" stroke-width="26" stroke-linejoin="round" d="M 5160,7594 L 0,7594 0,0 10319,0 10319,7594 5160,7594 Z"/>
 <path fill="rgb(234,67,53)" stroke="none" d="M 7083,4641 C 7083,4368 7039,4097 6955,3837 6871,3577 6746,3333 6585,3111 6425,2890 6230,2696 6009,2535 5787,2375 5543,2250 5283,2166 5022,2082 4751,2039 4478,2039 4204,2039 3933,2082 3673,2166 3412,2250 3168,2375 2947,2535 2725,2696 2531,2890 2370,3111 2209,3333 2085,3577 2000,3837 1916,4097 1873,4368 1873,4641 1873,4914 1916,5185 2000,5445 2085,5705 2209,5950 2370,6171 2531,6392 2725,6586 2947,6747 3168,6907 3412,7032 3673,7117 3933,7200 4204,7244 4478,7244 4601,7244 4725,7235 4848,7217 L 4663,5929 C 4601,5938 4540,5943 4478,5943 4341,5943 4205,5921 4076,5879 3945,5837 3822,5774 3712,5694 3602,5614 3504,5516 3424,5407 3344,5296 3281,5173 3239,5043 3197,4913 3175,4778 3175,4641 3175,4505 3197,4369 3239,4239 3281,4109 3344,3986 3424,3876 3504,3766 3602,3668 3712,3589 3822,3508 3945,3445 4076,3403 4205,3361 4341,3340 4478,3340 4614,3340 4750,3361 4880,3403 5010,3445 5133,3508 5244,3589 5354,3668 5451,3766 5531,3876 5612,3986 5675,4109 5717,4239 5758,4369 5780,4505 5780,4641 L 7083,4641 Z"/>
 <path fill="none" stroke="rgb(255,255,255)" stroke-width="53" stroke-linejoin="round" d="M 7083,4641 C 7083,4368 7039,4097 6955,3837 6871,3577 6746,3333 6585,3111 6425,2890 6230,2696 6009,2535 5787,2375 5543,2250 5283,2166 5022,2082 4751,2039 4478,2039 4204,2039 3933,2082 3673,2166 3412,2250 3168,2375 2947,2535 2725,2696 2531,2890 2370,3111 2209,3333 2085,3577 2000,3837 1916,4097 1873,4368 1873,4641 1873,4914 1916,5185 2000,5445 2085,5705 2209,5950 2370,6171 2531,6392 2725,6586 2947,6747 3168,6907 3412,7032 3673,7117 3933,7200 4204,7244 4478,7244 4601,7244 4725,7235 4848,7217 L 4663,5929 C 4601,5938 4540,5943 4478,5943 4341,5943 4205,5921 4076,5879 3945,5837 3822,5774 3712,5694 3602,5614 3504,5516 3424,5407 3344,5296 3281,5173 3239,5043 3197,4913 3175,4778 3175,4641 3175,4505 3197,4369 3239,4239 3281,4109 3344,3986 3424,3876 3504,3766 3602,3668 3712,3589 3822,3508 3945,3445 4076,3403 4205,3361 4341,3340 4478,3340 4614,3340 4750,3361 4880,3403 5010,3445 5133,3508 5244,3589 5354,3668 5451,3766 5531,3876 5612,3986 5675,4109 5717,4239 5758,4369 5780,4505 5780,4641 L 7083,4641 Z"/>
 <path fill="rgb(66,133,244)" stroke="none" d="M 4848,7217 C 4995,7196 5141,7163 5283,7117 5543,7032 5787,6907 6009,6747 6230,6586 6425,6392 6585,6171 6746,5950 6871,5705 6955,5445 7039,5185 7083,4914 7083,4641 L 5780,4641 C 5780,4778 5758,4913 5717,5043 5675,5173 5612,5296 5531,5407 5451,5516 5354,5614 5244,5694 5133,5774 5010,5837 4880,5879 4809,5902 4737,5919 4663,5929 L 4848,7217 Z"/>
 <path fill="none" stroke="rgb(255,255,255)" stroke-width="53" stroke-linejoin="round" d="M 4848,7217 C 4995,7196 5141,7163 5283,7117 5543,7032 5787,6907 6009,6747 6230,6586 6425,6392 6585,6171 6746,5950 6871,5705 6955,5445 7039,5185 7083,4914 7083,4641 L 5780,4641 C 5780,4778 5758,4913 5717,5043 5675,5173 5612,5296 5531,5407 5451,5516 5354,5614 5244,5694 5133,5774 5010,5837 4880,5879 4809,5902 4737,5919 4663,5929 L 4848,7217 Z"/>
 <text class="SVGTextShape"><tspan class="TextParagraph"><tspan class="TextPosition" x="2474" y="3468"><tspan font-family="Arial, sans-serif" font-size="317px" font-weight="700" fill="rgb(0,0,0)" stroke="none" style="white-space: pre">77,27%</tspan></tspan></tspan></text>
 <text class="SVGTextShape"><tspan class="TextParagraph"><tspan class="TextPosition" x="5426" y="6025"><tspan font-family="Arial, sans-serif" font-size="317px" font-weight="700" fill="rgb(0,0,0)" stroke="none" style="white-space: pre">22,73%</tspan></tspan></tspan></text>
 <text class="SVGTextShape"><tspan class="TextParagraph"><tspan class="TextPosition" x="1556" y="882"><tspan font-family="Arial, sans-serif" font-size="492px" font-weight="700" fill="rgb(0,0,0)" stroke="none" style="white-space: pre">Porcentual dos alunos de SST </tspan></tspan><tspan class="TextPosition" x="1886" y="1436"><tspan font-family="Arial, sans-serif" font-size="492px" font-weight="700" fill="rgb(0,0,0)" stroke="none" style="white-space: pre">que realizam algum estágio</tspan></tspan></tspan></text>
 <path fill="rgb(234,67,53)" stroke="none" d="M 7915,3713 L 7809,3713 7809,3503 8020,3503 8020,3713 7915,3713 Z"/>
 <path fill="none" stroke="rgb(255,255,255)" stroke-linejoin="round" d="M 7915,3713 L 7809,3713 7809,3503 8020,3503 8020,3713 7915,3713 Z"/>
 <path fill="rgb(66,133,244)" stroke="none" d="M 7915,4219 L 7809,4219 7809,4008 8020,4008 8020,4219 7915,4219 Z"/>
 <path fill="none" stroke="rgb(255,255,255)" stroke-linejoin="round" d="M 7915,4219 L 7809,4219 7809,4008 8020,4008 8020,4219 7915,4219 Z"/>
 <text class="SVGTextShape"><tspan class="TextParagraph"><tspan class="TextPosition" x="8120" y="3727"><tspan font-family="Arial, sans-serif" font-size="352px" font-weight="400" fill="rgb(0,0,0)" stroke="none" style="white-space: pre">Não</tspan></tspan></tspan></text>
 <text class="SVGTextShape"><tspan class="TextParagraph"><tspan class="TextPosition" x="8120" y="4233"><tspan font-family="Arial, sans-serif" font-size="352px" font-weight="400" fill="rgb(0,0,0)" stroke="none" style="white-space: pre">Sim</tspan></tspan></tspan></text>
</svg>