<?xml version="1.0" encoding="UTF-8"?>
<!DOCTYPE svg PUBLIC "-//W3C//DTD SVG 1.1//EN" "http://www.w3.org/Graphics/SVG/1.1/DTD/svg11.dtd">
<svg width="112mm" height="76mm" viewBox="0 0 11200 7600" version="1.1" xmlns="http://www.w3.org/2000/svg" xmlns:xlink="http://www.w3.org/1999/xlink" stroke-width="28.222" stroke-linejoin="round" xml:space="preserve">
 <path fill="rgb(114,159,207)" stroke="none" d="M -13,-13 L 11179,-13 11179,7607 -13,7607 -13,-13 Z"/>
 <path fill="none" stroke="rgb(52,101,164)" stroke-linejoin="round" d="M -13,-13 L 11179,-13 11179,7607 -13,7607 -13,-13 Z"/>
 <path fill="rgb(255,255,255)" stroke="none" d="M 5583,7594 L 0,7594 0,0 11166,0 11166,7594 5583,7594 Z"/>
 <path fill="none" stroke="rgb(217,217,217)" stroke-width="26" stroke-linejoin="round" d="M 5583,7594 L 0,7594 0,0 11166,0 11166,7594 5583,7594 Z"/>
 <path fill="rgb(66,133,244)" stroke="none" d="M 7279,4641 C 7279,4368 7235,4097 7151,3837 7067,3577 6942,3333 6781,3111 6621,2890 6426,2696 6205,2535 5983,2375 5739,2250 5478,2166 5218,2082 4946,2039 4673,2039 4400,2039 4128,2082 3868,2166 3608,2250 3363,2375 3142,2535 2920,2696 2726,2890 2565,3111 2404,3333 2280,3577 2195,3837 2111,4097 2068,4368 2068,4641 2068,4914 2111,5185 2195,5445 2280,5705 2404,5950 2565,6171 2682,6331 2816,6478 2967,6608 L 3820,5625 C 3745,5560 3677,5486 3620,5407 3539,5296 3476,5173 3434,5043 3392,4913 3370,4778 3370,4641 3370,4505 3392,4369 3434,4239 3476,4109 3539,3986 3620,3876 3699,3766 3797,3668 3907,3589 4018,3508 4140,3445 4271,3403 4401,3361 4536,3340 4673,3340 4810,3340 4945,3361 5075,3403 5206,3445 5329,3508 5439,3589 5549,3668 5647,3766 5727,3876 5807,3986 5870,4109 5912,4239 5954,4369 5976,4505 5976,4641 L 7279,4641 Z"/>
 <path fill="none" stroke="rgb(255,255,255)" stroke-width="53" stroke-linejoin="round" d="M 7279,4641 C 7279,4368 7235,4097 7151,3837 7067,3577 6942,3333 6781,3111 6621,2890 6426,2696 6205,2535 5983,2375 5739,2250 5478,2166 5218,2082 4946,2039 4673,2039 4400,2039 4128,2082 3868,2166 3608,2250 3363,2375 3142,2535 2920,2696 2726,2890 2565,3111 2404,3333 2280,3577 2195,3837 2111,4097 2068,4368 2068,4641 2068,4914 2111,5185 2195,5445 2280,5705 2404,5950 2565,6171 2682,6331 2816,6478 2967,6608 L 3820,5625 C 3745,5560 3677,5486 3620,5407 3539,5296 3476,5173 3434,5043 3392,4913 3370,4778 3370,4641 3370,4505 3392,4369 3434,4239 3476,4109 3539,3986 3620,3876 3699,3766 3797,3668 3907,3589 4018,3508 4140,3445 4271,3403 4401,3361 4536,3340 4673,3340 4810,3340 4945,3361 5075,3403 5206,3445 5329,3508 5439,3589 5549,3668 5647,3766 5727,3876 5807,3986 5870,4109 5912,4239 5954,4369 5976,4505 5976,4641 L 7279,4641 Z"/>
 <path fill="rgb(234,67,53)" stroke="none" d="M 2967,6608 C 3023,6656 3082,6703 3142,6747 3363,6907 3608,7032 3868,7117 4128,7200 4400,7244 4673,7244 4946,7244 5218,7200 5478,7117 5739,7032 5983,6907 6205,6747 6426,6586 6621,6392 6781,6171 6942,5950 7067,5705 7151,5445 7235,5185 7279,4914 7279,4641 L 5976,4641 C 5976,4778 5954,4913 5912,5043 5870,5173 5807,5296 5727,5407 5647,5516 5549,5614 5439,5694 5329,5774 5206,5837 5075,5879 4945,5921 4810,5943 4673,5943 4536,5943 4401,5921 4271,5879 4140,5837 4018,5774 3907,5694 3877,5672 3848,5649 3820,5625 L 2967,6608 Z"/>
 <path fill="none" stroke="rgb(255,255,255)" stroke-width="53" stroke-linejoin="round" d="M 2967,6608 C 3023,6656 3082,6703 3142,6747 3363,6907 3608,7032 3868,7117 4128,7200 4400,7244 4673,7244 4946,7244 5218,7200 5478,7117 5739,7032 5983,6907 6205,6747 6426,6586 6621,6392 6781,6171 6942,5950 7067,5705 7151,5445 7235,5185 7279,4914 7279,4641 L 5976,4641 C 5976,4778 5954,4913 5912,5043 5870,5173 5807,5296 5727,5407 5647,5516 5549,5614 5439,5694 5329,5774 5206,5837 5075,5879 4945,5921 4810,5943 4673,5943 4536,5943 4401,5921 4271,5879 4140,5837 4018,5774 3907,5694 3877,5672 3848,5649 3820,5625 L 2967,6608 Z"/>
 <text class="SVGTextShape"><tspan class="TextParagraph"><tspan class="TextPosition" x="3465" y="2971"><tspan font-family="Arial, sans-serif" font-size="317px" font-weight="700" fill="rgb(0,0,0)" stroke="none" style="white-space: pre">63,64</tspan></tspan></tspan></text>
 <text class="SVGTextShape"><tspan class="TextParagraph"><tspan class="TextPosition" x="5089" y="6523"><tspan font-family="Arial, sans-serif" font-size="317px" font-weight="700" fill="rgb(0,0,0)" stroke="none" style="white-space: pre">36,36</tspan></tspan></tspan></text>
 <text class="SVGTextShape"><tspan class="TextParagraph"><tspan class="TextPosition" x="1267" y="882"><tspan font-family="Arial, sans-serif" font-size="492px" font-weight="700" fill="rgb(0,0,0)" stroke="none" style="white-space: pre">Distribuição por genero da turma de </tspan></tspan><tspan class="TextPosition" x="5108" y="1436"><tspan font-family="Arial, sans-serif" font-size="492px" font-weight="700" fill="rgb(0,0,0)" stroke="none" style="white-space: pre">SST</tspan></tspan></tspan></text>
 <path fill="rgb(66,133,244)" stroke="none" d="M 8263,3944 L 8168,3944 8168,3754 8358,3754 8358,3944 8263,3944 Z"/>
 <path fill="none" stroke="rgb(255,255,255)" stroke-linejoin="round" d="M 8263,3944 L 8168,3944 8168,3754 8358,3754 8358,3944 8263,3944 Z"/>
 <path fill="rgb(234,67,53)" stroke="none" d="M 8263,4456 L 8168,4456 8168,4266 8358,4266 8358,4456 8263,4456 Z"/>
 <path fill="none" stroke="rgb(255,255,255)" stroke-linejoin="round" d="M 8263,4456 L 8168,4456 8168,4266 8358,4266 8358,4456 8263,4456 Z"/>
 <path fill="rgb(251,188,4)" stroke="none" d="M 8263,4968 L 8168,4968 8168,4779 8358,4779 8358,4968 8263,4968 Z"/>
 <path fill="none" stroke="rgb(255,255,255)" stroke-linejoin="round" d="M 8263,4968 L 8168,4968 8168,4779 8358,4779 8358,4968 8263,4968 Z"/>
 <text class="SVGTextShape"><tspan class="TextParagraph"><tspan class="TextPosition" x="8457" y="3955"><tspan font-family="Arial, sans-serif" font-size="317px" font-weight="400" fill="rgb(0,0,0)" stroke="none" style="white-space: pre">Homem</tspan></tspan></tspan></text>
 <text class="SVGTextShape"><tspan class="TextParagraph"><tspan class="TextPosition" x="8457" y="4467"><tspan font-family="Arial, sans-serif" font-size="317px" font-weight="400" fill="rgb(0,0,0)" stroke="none" style="white-space: pre">Mulher</tspan></tspan></tspan></text>
 <text class="SVGTextShape"><tspan class="TextParagraph"><tspan class="TextPosition" x="8457" y="4979"><tspan font-family="Arial, sans-serif" font-size="317px" font-weight="400" fill="rgb(0,0,0)" stroke="none" style="white-space: pre">Outro</tspan></tspan></tspan></text>
</svg>