<?xml version="1.0" encoding="UTF-8"?>
<!DOCTYPE svg PUBLIC "-//W3C//DTD SVG 1.1//EN" "http://www.w3.org/Graphics/SVG/1.1/DTD/svg11.dtd">
<svg width="110mm" height="76mm" viewBox="0 0 11000 7600" version="1.1" xmlns="http://www.w3.org/2000/svg" xmlns:xlink="http://www.w3.org/1999/xlink" stroke-width="28.222" stroke-linejoin="round" xml:space="preserve">
 <path fill="rgb(114,159,207)" stroke="none" d="M -13,-13 L 10941,-13 10941,7607 -13,7607 -13,-13 Z"/>
 <path fill="none" stroke="rgb(52,101,164)" stroke-linejoin="round" d="M -13,-13 L 10941,-13 10941,7607 -13,7607 -13,-13 Z"/>
 <path fill="rgb(255,255,255)" stroke="none" d="M 5464,7594 L 0,7594 0,0 10928,0 10928,7594 5464,7594 Z"/>
 <path fill="none" stroke="rgb(217,217,217)" stroke-width="26" stroke-linejoin="round" d="M 5464,7594 L 0,7594 0,0 10928,0 10928,7594 5464,7594 Z"/>
 <path fill="rgb(234,67,53)" stroke="none" d="M 6515,5195 C 6515,4980 6481,4767 6414,4562 6347,4358 6249,4165 6122,3991 5996,3817 5843,3664 5669,3538 5495,3411 5301,3314 5097,3247 4892,3180 4679,3147 4463,3147 4248,3147 4034,3180 3830,3247 3625,3314 3432,3411 3258,3538 3210,3572 3165,3609 3121,3647 L 3792,4421 C 3814,4402 3837,4384 3861,4367 3948,4303 4044,4254 4146,4222 4249,4188 4356,4171 4463,4171 4571,4171 4678,4188 4781,4222 4882,4254 4979,4303 5066,4367 5153,4430 5230,4507 5292,4593 5356,4680 5405,4777 5438,4878 5472,4981 5489,5088 5489,5195 L 6515,5195 Z"/>
 <path fill="none" stroke="rgb(255,255,255)" stroke-width="53" stroke-linejoin="round" d="M 6515,5195 C 6515,4980 6481,4767 6414,4562 6347,4358 6249,4165 6122,3991 5996,3817 5843,3664 5669,3538 5495,3411 5301,3314 5097,3247 4892,3180 4679,3147 4463,3147 4248,3147 4034,3180 3830,3247 3625,3314 3432,3411 3258,3538 3210,3572 3165,3609 3121,3647 L 3792,4421 C 3814,4402 3837,4384 3861,4367 3948,4303 4044,4254 4146,4222 4249,4188 4356,4171 4463,4171 4571,4171 4678,4188 4781,4222 4882,4254 4979,4303 5066,4367 5153,4430 5230,4507 5292,4593 5356,4680 5405,4777 5438,4878 5472,4981 5489,5088 5489,5195 L 6515,5195 Z"/>
 <path fill="rgb(255,192,0)" stroke="none" d="M 3121,3647 C 3003,3749 2896,3865 2804,3991 2678,4165 2580,4358 2513,4562 2446,4767 2413,4980 2413,5195 L 2413,5195 3438,5195 3438,5195 C 3438,5088 3455,4981 3489,4878 3522,4777 3570,4680 3634,4593 3680,4530 3733,4472 3792,4421 L 3121,3647 Z"/>
 <path fill="none" stroke="rgb(255,255,255)" stroke-width="53" stroke-linejoin="round" d="M 3121,3647 C 3003,3749 2896,3865 2804,3991 2678,4165 2580,4358 2513,4562 2446,4767 2413,4980 2413,5195 L 2413,5195 3438,5195 3438,5195 C 3438,5088 3455,4981 3489,4878 3522,4777 3570,4680 3634,4593 3680,4530 3733,4472 3792,4421 L 3121,3647 Z"/>
 <path fill="rgb(66,133,244)" stroke="none" d="M 2413,5195 C 2413,5410 2446,5624 2513,5828 2580,6032 2678,6226 2804,6399 2931,6574 3084,6726 3258,6853 3432,6979 3625,7077 3830,7144 4034,7210 4248,7244 4463,7244 4679,7244 4892,7210 5097,7144 5301,7077 5495,6979 5669,6853 5843,6726 5996,6574 6122,6399 6249,6226 6347,6032 6414,5828 6481,5624 6515,5410 6515,5195 L 5489,5195 C 5489,5303 5472,5409 5438,5512 5405,5614 5356,5710 5292,5797 5230,5884 5153,5961 5066,6023 4979,6087 4882,6136 4781,6169 4678,6203 4571,6220 4463,6220 4356,6220 4249,6203 4146,6169 4044,6136 3948,6087 3861,6023 3774,5961 3697,5884 3634,5797 3570,5710 3522,5614 3489,5512 3455,5409 3438,5303 3438,5195 L 2413,5195 Z"/>
 <path fill="none" stroke="rgb(255,255,255)" stroke-width="53" stroke-linejoin="round" d="M 2413,5195 C 2413,5410 2446,5624 2513,5828 2580,6032 2678,6226 2804,6399 2931,6574 3084,6726 3258,6853 3432,6979 3625,7077 3830,7144 4034,7210 4248,7244 4463,7244 4679,7244 4892,7210 5097,7144 5301,7077 5495,6979 5669,6853 5843,6726 5996,6574 6122,6399 6249,6226 6347,6032 6414,5828 6481,5624 6515,5410 6515,5195 L 5489,5195 C 5489,5303 5472,5409 5438,5512 5405,5614 5356,5710 5292,5797 5230,5884 5153,5961 5066,6023 4979,6087 4882,6136 4781,6169 4678,6203 4571,6220 4463,6220 4356,6220 4249,6203 4146,6169 4044,6136 3948,6087 3861,6023 3774,5961 3697,5884 3634,5797 3570,5710 3522,5614 3489,5512 3455,5409 3438,5303 3438,5195 L 2413,5195 Z"/>
 <text class="SVGTextShape"><tspan class="TextParagraph"><tspan class="TextPosition" x="4575" y="3904"><tspan font-family="Arial, sans-serif" font-size="317px" font-weight="700" fill="rgb(0,0,0)" stroke="none" style="white-space: pre">36,36%</tspan></tspan></tspan></text>
 <text class="SVGTextShape"><tspan class="TextParagraph"><tspan class="TextPosition" x="2537" y="4662"><tspan font-family="Arial, sans-serif" font-size="317px" font-weight="700" fill="rgb(0,0,0)" stroke="none" style="white-space: pre">13,64%</tspan></tspan></tspan></text>
 <text class="SVGTextShape"><tspan class="TextParagraph"><tspan class="TextPosition" x="4146" y="6838"><tspan font-family="Arial, sans-serif" font-size="317px" font-weight="700" fill="rgb(0,0,0)" stroke="none" style="white-space: pre">50%</tspan></tspan></tspan></text>
 <text class="SVGTextShape"><tspan class="TextParagraph"><tspan class="TextPosition" x="1214" y="882"><tspan font-family="Arial, sans-serif" font-size="492px" font-weight="700" fill="rgb(0,0,0)" stroke="none" style="white-space: pre">Prevalência de problemas de saúde </tspan></tspan><tspan class="TextPosition" x="1875" y="1436"><tspan font-family="Arial, sans-serif" font-size="492px" font-weight="700" fill="rgb(0,0,0)" stroke="none" style="white-space: pre">de origem acadêmica entre os </tspan></tspan><tspan class="TextPosition" x="1888" y="1990"><tspan font-family="Arial, sans-serif" font-size="492px" font-weight="700" fill="rgb(0,0,0)" stroke="none" style="white-space: pre">discentes da turma de SST no </tspan></tspan><tspan class="TextPosition" x="4197" y="2544"><tspan font-family="Arial, sans-serif" font-size="492px" font-weight="700" fill="rgb(0,0,0)" stroke="none" style="white-space: pre">último ano</tspan></tspan></tspan></text>
 <path fill="rgb(234,67,53)" stroke="none" d="M 7908,3519 L 7802,3519 7802,3309 8013,3309 8013,3519 7908,3519 Z"/>
 <path fill="none" stroke="rgb(255,255,255)" stroke-linejoin="round" d="M 7908,3519 L 7802,3519 7802,3309 8013,3309 8013,3519 7908,3519 Z"/>
 <path fill="rgb(255,192,0)" stroke="none" d="M 7908,4068 L 7802,4068 7802,3858 8013,3858 8013,4068 7908,4068 Z"/>
 <path fill="none" stroke="rgb(255,255,255)" stroke-linejoin="round" d="M 7908,4068 L 7802,4068 7802,3858 8013,3858 8013,4068 7908,4068 Z"/>
 <path fill="rgb(66,133,244)" stroke="none" d="M 7908,4617 L 7802,4617 7802,4407 8013,4407 8013,4617 7908,4617 Z"/>
 <path fill="none" stroke="rgb(255,255,255)" stroke-linejoin="round" d="M 7908,4617 L 7802,4617 7802,4407 8013,4407 8013,4617 7908,4617 Z"/>
 <text class="SVGTextShape"><tspan class="TextParagraph"><tspan class="TextPosition" x="8113" y="3533"><tspan font-family="Arial, sans-serif" font-size="352px" font-weight="400" fill="rgb(0,0,0)" stroke="none" style="white-space: pre">1 ou 2</tspan></tspan></tspan></text>
 <text class="SVGTextShape"><tspan class="TextParagraph"><tspan class="TextPosition" x="8113" y="4082"><tspan font-family="Arial, sans-serif" font-size="352px" font-weight="400" fill="rgb(0,0,0)" stroke="none" style="white-space: pre">3 ou mais</tspan></tspan></tspan></text>
 <text class="SVGTextShape"><tspan class="TextParagraph"><tspan class="TextPosition" x="8113" y="4631"><tspan font-family="Arial, sans-serif" font-size="352px" font-weight="400" fill="rgb(0,0,0)" stroke="none" style="white-space: pre">Nenhum</tspan></tspan></tspan></text>
</svg>